<svg width="280" height="280" viewBox="0 0 458 458" fill="none" xmlns="http://www.w3.org/2000/svg">
<g opacity="0.5">
<path opacity="0.5" d="M229 458C355.473 458 458 355.473 458 229C458 102.527 355.473 0 229 0C102.527 0 0 102.527 0 229C0 355.473 102.527 458 229 458Z" fill="url(#paint0_linear_77_145)"/>
</g>
<path d="M229.446 451.708C353.252 451.708 453.617 351.343 453.617 227.537C453.617 103.731 353.252 3.36621 229.446 3.36621C105.64 3.36621 5.27539 103.731 5.27539 227.537C5.27539 351.343 105.64 451.708 229.446 451.708Z" fill="#94F250"/>
<path d="M229.656 452.593C273.459 452.664 316.314 439.839 352.876 415.717C344.615 370.573 313.179 368.001 313.179 368.001H139.821C139.821 368.001 110.156 370.435 100.891 411.964C138.587 438.48 183.569 452.673 229.656 452.593Z" fill="#0A6ABF"/>
<path d="M227.274 331.013C287.032 331.013 335.475 282.57 335.475 222.812C335.475 163.055 287.032 114.611 227.274 114.611C167.516 114.611 119.073 163.055 119.073 222.812C119.073 282.57 167.516 331.013 227.274 331.013Z" fill="#333333"/>
<path opacity="0.1" d="M192.354 312.936H261.683V368.401C261.683 377.593 258.033 386.408 251.535 392.908C245.037 399.409 236.223 403.063 227.032 403.066C217.838 403.066 209.021 399.414 202.52 392.913C196.019 386.412 192.367 377.595 192.367 368.401V312.936H192.354Z" fill="black"/>
<path d="M194.552 310.364H259.512C260.095 310.364 260.654 310.595 261.066 311.008C261.478 311.42 261.71 311.979 261.71 312.562V365.829C261.711 370.383 260.814 374.892 259.072 379.1C257.329 383.307 254.775 387.13 251.554 390.35C248.334 393.57 244.511 396.123 240.303 397.865C236.095 399.607 231.586 400.502 227.032 400.501C217.838 400.501 209.021 396.848 202.52 390.347C196.019 383.846 192.367 375.029 192.367 365.836V312.562C192.367 311.981 192.596 311.424 193.006 311.012C193.415 310.6 193.971 310.367 194.552 310.364Z" fill="#FDB797"/>
<path opacity="0.1" d="M192.478 339.117C214.822 347.465 239.418 347.532 261.808 339.307V330.777H192.478V339.117Z" fill="black"/>
<path d="M227.274 343.756C282.158 343.756 326.65 299.264 326.65 244.38C326.65 189.497 282.158 145.005 227.274 145.005C172.391 145.005 127.899 189.497 127.899 244.38C127.899 299.264 172.391 343.756 227.274 343.756Z" fill="#FDB797"/>
<path opacity="0.1" d="M156.488 153.988C156.488 153.988 198.371 239 316.512 189.63L289.006 146.501L240.247 129.001L156.488 153.988Z" fill="black"/>
<path d="M156.488 152.741C156.488 152.741 198.371 237.753 316.512 188.37L289.006 145.241L240.247 127.741L156.488 152.741Z" fill="#333333"/>
<path d="M156.12 146.98C158.944 138.238 163.825 130.302 170.353 123.837C189.9 104.513 221.946 100.439 238.383 78.4048C242.32 84.5202 239.276 93.923 232.478 96.5476C248.226 96.4426 266.474 95.0647 275.378 82.1121C277.578 87.2349 278.28 92.8771 277.4 98.3828C276.521 103.888 274.097 109.031 270.41 113.214C284.367 113.87 299.282 123.319 300.161 137.262C300.764 146.554 294.911 155.346 287.307 160.674C279.702 166.002 270.437 168.45 261.349 170.451C234.814 176.31 138.804 200.831 156.12 146.98Z" fill="#333333"/>
<path d="M127.86 261.624C132.966 261.624 137.105 253.863 137.105 244.288C137.105 234.714 132.966 226.953 127.86 226.953C122.754 226.953 118.614 234.714 118.614 244.288C118.614 253.863 122.754 261.624 127.86 261.624Z" fill="#FDB797"/>
<path d="M326.637 261.624C331.743 261.624 335.882 253.863 335.882 244.288C335.882 234.714 331.743 226.953 326.637 226.953C321.531 226.953 317.392 234.714 317.392 244.288C317.392 253.863 321.531 261.624 326.637 261.624Z" fill="#FDB797"/>
<defs>
<linearGradient id="paint0_linear_77_145" x1="229" y1="458" x2="229" y2="0" gradientUnits="userSpaceOnUse">
<stop stop-color="#808080" stop-opacity="0.25"/>
<stop offset="0.54" stop-color="#808080" stop-opacity="0.12"/>
<stop offset="1" stop-color="#808080" stop-opacity="0.1"/>
</linearGradient>
</defs>
</svg>
