<svg width="450" height="450" viewBox="0 0 435 762" fill="none" xmlns="http://www.w3.org/2000/svg">
<g clip-path="url(#clip0_62_64)">
<path d="M87.6669 81.4047L74.6264 23.536L70.3729 4.68407C70.02 3.12889 69.0638 1.77757 67.7146 0.927361C66.3655 0.077152 64.7338 -0.202313 63.1786 0.150452L56.7546 1.60333L5.23988 13.2261C4.47082 13.3994 3.74344 13.7225 3.09932 14.177C2.4552 14.6315 1.90694 15.2085 1.48591 15.875C1.06488 16.5415 0.779333 17.2844 0.645551 18.0613C0.511769 18.8382 0.532396 19.6339 0.70625 20.4028C-2.05933 46.1514 3.40195 69.9045 15.2522 92.1348C16.1275 93.7977 17.0552 95.4606 18.0179 97.1235C18.2727 98.2733 18.8638 99.3213 19.7159 100.134C20.4332 100.819 21.3086 101.317 22.2643 101.583C23.2201 101.848 24.2266 101.874 25.1946 101.657L31.9513 100.134L36.1173 99.189L83.1335 88.5815C84.6862 88.2307 86.036 87.2776 86.8861 85.9317C87.7362 84.5859 88.0171 82.9576 87.6669 81.4047Z" fill="#E6E6E6"/>
<path d="M82.2756 78.1841L69.8476 23.1335L66.872 9.91787C66.5441 8.46285 65.6519 7.19755 64.3915 6.39998C63.1311 5.60241 61.6057 5.33783 60.1504 5.66437L56.1944 6.5571L10.351 16.902C8.89596 17.23 7.63066 18.1222 6.83309 19.3825C6.03553 20.6429 5.77094 22.1683 6.09747 23.6237C6.50003 43.6658 8.60056 61.8526 17.2301 72.9504C18.2123 77.2669 20.3202 81.2464 23.3394 84.4839C26.3587 87.7215 30.1816 90.1016 34.4192 91.3822C34.5242 91.4172 34.6117 91.4523 34.7167 91.4872C34.7868 91.5047 34.8743 91.5398 34.9443 91.5573C38.9329 92.6795 43.1387 92.7878 47.1798 91.8724L78.0221 84.9056C79.4771 84.5777 80.7424 83.6855 81.54 82.4252C82.3375 81.1648 82.6021 79.6394 82.2756 78.1841Z" fill="white"/>
<path d="M36.6031 35.2575C37.6175 34.087 38.9833 33.2762 40.4966 32.9462C42.0099 32.6163 43.5893 32.7849 44.9988 33.4268C48.058 34.9548 49.245 38.2058 48.7562 41.4383C48.2102 45.0495 46.3239 48.3369 46.1526 52.0343C46.0027 55.27 47.2089 58.6699 50.0762 60.412C52.1323 61.6612 54.2487 58.5688 52.1827 57.3136C48.783 55.2481 49.9255 50.7093 50.9116 47.6133C52.143 43.7475 53.4261 39.8064 51.9028 35.8232C51.2285 34.1554 50.1467 32.6833 48.7565 31.5416C47.3663 30.3999 45.7121 29.6251 43.945 29.2879C42.178 28.9507 40.3546 29.0619 38.6417 29.6115C36.9288 30.161 35.381 31.1313 34.1399 32.4336C32.5176 34.1828 34.9604 37.0288 36.6031 35.2575Z" fill="#6C63FF"/>
<path d="M53.1055 71.2096C55.1748 71.2096 56.8522 69.5322 56.8522 67.463C56.8522 65.3937 55.1748 63.7163 53.1055 63.7163C51.0363 63.7163 49.3589 65.3937 49.3589 67.463C49.3589 69.5322 51.0363 71.2096 53.1055 71.2096Z" fill="#6C63FF"/>
<path d="M288.914 724.216L229.599 723.862L210.275 723.749C206.954 723.732 204.232 724.994 204.195 726.569L204.118 729.693L203.467 754.741C203.417 756.306 206.074 757.605 209.395 757.622C233.59 761.58 258.234 761.979 282.544 758.808C284.365 758.588 286.196 758.345 288.039 758.082C289.163 758.098 290.283 757.946 291.361 757.63C293.001 757.124 294.085 756.256 294.114 755.269L294.201 751.984L294.249 749.958L294.843 727.098C294.879 725.523 292.218 724.232 288.914 724.216Z" fill="#E6E6E6"/>
<path d="M284.53 726.349L228.098 726.023L214.553 725.941C211.449 725.922 208.894 727.101 208.856 728.574L208.806 730.497L208.228 752.787C208.189 754.26 210.675 755.471 213.779 755.49C233.367 757.51 251.545 758.544 264.342 755.784C273.658 755.831 281.875 753.449 286.26 749.882C286.319 749.838 286.373 749.801 286.432 749.757C286.465 749.726 286.519 749.69 286.553 749.659C287.445 749.001 288.188 748.16 288.73 747.193C289.273 746.226 289.603 745.154 289.699 744.049L290.081 729.052C290.12 727.579 287.634 726.368 284.53 726.349Z" fill="#0785F2"/>
<path d="M232.176 742.696C230.446 741.468 230.265 739.798 232.344 738.621C234.54 737.378 237.978 737.188 241.008 737.769C244.394 738.419 247.154 739.651 250.711 740.137C253.823 740.563 257.41 740.38 259.77 739.249C261.463 738.438 258.946 737.121 257.245 737.936C254.447 739.277 250.298 738.251 247.515 737.455C244.041 736.461 240.505 735.435 236.277 735.699C228.584 736.18 224.571 740.478 228.857 743.522C230.182 744.463 233.517 743.649 232.176 742.696V742.696Z" fill="#E6E6E6"/>
<path d="M267.332 740.405C269.401 740.405 271.078 739.609 271.078 738.628C271.078 737.646 269.401 736.851 267.332 736.851C265.262 736.851 263.585 737.646 263.585 738.628C263.585 739.609 265.262 740.405 267.332 740.405Z" fill="#E6E6E6"/>
<path d="M3.35984 289.957C-1.79394 268.312 -0.934446 246.992 7.89069 226.104C7.98386 224.811 8.58581 223.609 9.56452 222.76C10.5432 221.911 11.8188 221.485 13.1113 221.575L61.335 224.997C62.6273 225.09 63.8299 225.692 64.6789 226.671C65.5279 227.649 65.954 228.925 65.8637 230.217L61.3329 294.071C61.2398 295.363 60.6378 296.566 59.6591 297.415C58.6804 298.264 57.4049 298.69 56.1124 298.6L7.88865 295.178C6.59635 295.085 5.39377 294.483 4.54475 293.504C3.69573 292.525 3.2696 291.25 3.35984 289.957Z" fill="#F2F2F2"/>
<path d="M8.42733 270.933C4.30282 260.267 6.93998 245.597 11.3402 229.882C11.4274 228.672 11.9911 227.546 12.9077 226.751C13.8243 225.956 15.0189 225.556 16.2294 225.641L57.6736 228.582C58.8839 228.669 60.0102 229.233 60.8054 230.149C61.6006 231.066 61.9997 232.261 61.9152 233.471L57.8834 290.292C57.7961 291.502 57.2323 292.629 56.3157 293.424C55.399 294.219 54.2044 294.618 52.9939 294.533L27.3201 292.712C21.9291 292.323 16.9123 289.812 13.3705 285.729C9.82862 281.646 8.05089 276.325 8.42733 270.933Z" fill="#0A6ABF"/>
<path d="M37.1204 273.718C35.8545 273.5 34.5886 273.283 33.3227 273.065C33.9059 271.689 34.2425 270.22 34.3171 268.727C34.9162 260.735 34.9767 252.667 35.2963 244.659C35.288 244.367 35.1951 244.082 35.0289 243.841C34.8627 243.6 34.6302 243.412 34.3595 243.3C34.0889 243.188 33.7915 243.156 33.5034 243.209C33.2153 243.262 32.9486 243.398 32.7356 243.599C29.5564 246.232 26.3771 248.865 23.1978 251.499C21.7096 252.731 23.8422 254.843 25.3191 253.62C27.6011 251.73 29.883 249.84 32.165 247.95C31.9555 253.197 31.746 258.444 31.5366 263.691C31.4361 266.209 31.7422 269.268 30.7112 271.635C30.5703 271.954 30.3863 272.253 30.1643 272.522C28.7627 272.282 27.3612 272.041 25.9596 271.8C24.9516 271.627 23.6708 272.468 24.1144 273.645C25.0791 276.204 27.9229 277.013 30.3614 276.026C30.5763 275.93 30.7843 275.818 30.9838 275.693L36.3229 276.61C38.2112 276.935 39.0224 274.044 37.1204 273.718Z" fill="#F2F2F2"/>
<path d="M178.36 295.957C173.206 274.312 174.066 252.992 182.891 232.104C182.984 230.811 183.586 229.609 184.565 228.76C185.543 227.911 186.819 227.485 188.111 227.575L236.335 230.997C237.627 231.09 238.83 231.692 239.679 232.671C240.528 233.649 240.954 234.925 240.864 236.217L236.333 300.071C236.24 301.363 235.638 302.566 234.659 303.415C233.68 304.264 232.405 304.69 231.112 304.6L182.889 301.178C181.596 301.085 180.394 300.483 179.545 299.504C178.696 298.525 178.27 297.25 178.36 295.957Z" fill="#F2F2F2"/>
<path d="M183.427 276.933C179.303 266.267 181.94 251.597 186.34 235.882C186.427 234.672 186.991 233.546 187.908 232.751C188.824 231.956 190.019 231.556 191.229 231.641L232.674 234.582C233.884 234.669 235.01 235.233 235.805 236.149C236.601 237.066 237 238.261 236.915 239.471L232.883 296.292C232.796 297.502 232.232 298.629 231.316 299.424C230.399 300.219 229.204 300.618 227.994 300.533L202.32 298.712C196.929 298.323 191.912 295.812 188.37 291.729C184.829 287.646 183.051 282.325 183.427 276.933Z" fill="white"/>
<path d="M210.483 266.1C211.033 265.842 211.555 265.526 212.038 265.157C213.323 264.097 214.273 262.687 214.772 261.098C215.272 259.509 215.3 257.81 214.853 256.205C212.908 249.061 204.362 249.018 198.463 249.877C196.559 250.155 197.369 253.046 199.26 252.77C203.236 252.191 209.478 251.723 211.615 256.065C212.102 257.085 212.276 258.227 212.113 259.346C211.951 260.465 211.459 261.511 210.701 262.35C209.795 263.259 208.602 263.826 207.325 263.955C206.088 263.417 204.745 263.166 203.397 263.222C202.007 263.288 201.232 265.31 202.64 266.017C203.886 266.638 205.258 266.962 206.65 266.963C207.804 267.52 208.767 268.405 209.42 269.508C210.072 270.61 210.384 271.881 210.316 273.161C210.184 274.037 209.879 274.878 209.42 275.636C208.961 276.393 208.357 277.053 207.642 277.577C206.927 278.1 206.116 278.477 205.255 278.686C204.394 278.895 203.5 278.931 202.625 278.794C200.74 278.415 199.933 281.306 201.827 281.687C203.12 281.93 204.449 281.91 205.734 281.626C207.019 281.342 208.233 280.802 209.303 280.036C210.373 279.271 211.278 278.297 211.962 277.173C212.645 276.049 213.095 274.799 213.283 273.496C213.402 272.132 213.212 270.759 212.727 269.478C212.242 268.198 211.475 267.043 210.483 266.1Z" fill="#8DE8F2"/>
<path d="M272.105 705.445L255.138 705.444L247.067 640L272.108 640.002L272.105 705.445Z" fill="#FFB6B6"/>
<path d="M272.702 723.145L220.527 723.143V722.483C220.527 717.097 222.667 711.932 226.475 708.124C230.284 704.315 235.449 702.176 240.835 702.176H240.836L250.367 694.945L268.148 702.177L272.703 702.177L272.702 723.145Z" fill="#2F2E41"/>
<path d="M350.105 741.445L333.138 741.444L325.067 676L350.108 676.002L350.105 741.445Z" fill="#FFB6B6"/>
<path d="M350.702 759.145L298.527 759.143V758.483C298.527 753.097 300.667 747.932 304.475 744.124C308.284 740.315 313.449 738.176 318.835 738.176H318.836L328.367 730.945L346.148 738.177L350.703 738.177L350.702 759.145Z" fill="#2F2E41"/>
<path d="M141.355 218.083C142.521 219.386 143.955 220.42 145.56 221.113C147.164 221.807 148.9 222.144 150.647 222.101C152.394 222.057 154.111 221.635 155.68 220.863C157.248 220.091 158.629 218.988 159.729 217.629L217.581 234.097L226.07 219.215L157.215 200.159C154.791 198.478 151.834 197.745 148.905 198.098C145.976 198.452 143.279 199.867 141.324 202.077C139.369 204.286 138.293 207.136 138.298 210.086C138.304 213.036 139.392 215.882 141.355 218.083Z" fill="#FFB6B6"/>
<path d="M291.796 355.819L230.923 495L223.923 517L245.087 671.416L279.247 669.749L279.171 649.947C279.171 649.947 271.041 645.538 279.144 643.144C287.247 640.749 286.906 634.67 279.077 625.71C271.247 616.749 278.71 531 278.71 531C278.71 531 310.947 500.13 307.435 492.065C303.923 484 310.443 484 310.443 484C310.443 484 317.393 482.757 317.658 479.379C317.923 476 323.075 469.207 323.075 469.207L321.27 707.03H350.744C350.744 707.03 364.22 684.638 361.572 679.819C358.923 675 355.22 674.528 361.572 668.764C367.923 663 377.246 667.717 373.085 656.858C368.923 646 369.992 528.824 369.992 528.824C369.992 528.824 386.389 460.827 376.259 456.21C366.129 451.593 371.165 452.244 377.147 445.919C383.129 439.593 372.984 440.171 378.056 435.382C383.129 430.593 383.333 374.23 383.333 374.23L291.796 355.819Z" fill="#2F2E41"/>
<path d="M387.924 395C345.254 394.9 308.644 404.49 265.974 404.39C268.754 385.151 278.469 354.994 281.248 335.749C285.156 308.682 282.125 292.526 286.024 265.46C286.414 262.81 286.794 260.17 287.174 257.52C288.714 246.82 285.024 236.12 291.644 224.82C294.464 220 299.154 215.08 306.924 210C323.064 211.64 322.784 204.36 338.924 206L344.264 216.64C344.944 220.68 347.394 223.31 350.714 225.3C357.544 229.43 368.064 230.87 374.384 236.46C382.324 243.48 381.794 254.71 379.434 265.67C378.594 269.57 377.524 273.43 376.514 277.06C368.384 306.307 378.775 328.62 387.248 355.749C388.051 358.322 380.442 368.271 381.248 370.749C382.615 374.95 387.51 380.175 386.73 383.014C385.766 386.528 384.804 389.834 387.924 395Z" fill="#94F250"/>
<path d="M379.434 265.67L286.024 265.46L283.024 265.45L172.248 224.749L186.424 225.23L193.004 210.06L196.174 202.77L261.464 224.59L291.644 224.82L348.544 225.24C349.274 225.25 349.994 225.27 350.714 225.3C357.544 229.43 368.064 230.87 374.384 236.46C382.324 243.48 381.794 254.71 379.434 265.67Z" fill="#94F250"/>
<path d="M315.616 203.098C332.38 203.098 345.971 189.507 345.971 172.742C345.971 155.978 332.38 142.387 315.616 142.387C298.851 142.387 285.26 155.978 285.26 172.742C285.26 189.507 298.851 203.098 315.616 203.098Z" fill="#FFB6B6"/>
<path d="M311.302 198.834L313.774 206.74C319.257 204.033 334.813 200.278 339.378 196.21C343.944 192.143 347.475 186.53 347.691 180.42C347.803 177.264 347.038 174.08 347.563 170.966C348.155 167.448 350.327 164.397 351.321 160.97C352.251 157.381 351.901 153.58 350.331 150.22C348.761 146.861 346.07 144.154 342.719 142.565C337.688 140.354 331.934 140.974 326.464 140.44C320.994 139.905 314.891 137.431 313.352 132.155C312.776 130.182 312.842 127.856 311.08 126.564C310.194 125.973 309.121 125.729 308.067 125.882C307.012 126.034 306.052 126.571 305.37 127.39C305.289 127.482 305.211 127.575 305.136 127.669C300.506 133.478 291.779 133.909 287.212 128.05C286.913 127.667 286.627 127.276 286.351 126.875C285.392 127.774 284.619 128.854 284.08 130.053C283.54 131.251 283.243 132.545 283.207 133.86C283.17 135.174 283.394 136.482 283.866 137.709C284.339 138.936 285.049 140.058 285.957 141.008C284.232 141.009 282.558 140.428 281.203 139.36C279.849 138.292 278.894 136.799 278.493 135.121C276.398 138.015 274.248 141.032 273.574 144.54C272.901 148.048 274.151 152.197 277.368 153.75C279.01 154.399 280.772 154.687 282.536 154.596C274.236 164.413 279.216 164.13 296.023 154.852C304.361 155.01 301.068 162.758 301.176 171.097C305.1 170.72 309.141 170.351 312.852 172.004C314.58 172.731 316.037 173.983 317.016 175.582C319.469 179.794 317.036 184.172 314.879 188.004C313.036 191.279 311.289 195.223 312.818 198.655" fill="#2F2E41"/>
<path d="M256.055 453.307C257.584 452.462 258.912 451.294 259.946 449.885C260.98 448.476 261.696 446.859 262.043 445.146C262.391 443.433 262.363 441.665 261.96 439.964C261.557 438.264 260.79 436.671 259.711 435.295L288.669 382.576L276.056 370.98L242.12 433.848C239.94 435.837 238.566 438.555 238.257 441.489C237.948 444.423 238.727 447.368 240.444 449.767C242.162 452.166 244.7 453.851 247.577 454.503C250.454 455.156 253.47 454.73 256.054 453.307L256.055 453.307Z" fill="#FFB6B6"/>
<path d="M326.683 206.77L319.933 327.69L287.413 403.68L266.247 431.749L268.653 419.03L254.063 411.73L252.693 411.05L272.113 361.86L277.973 347.02L280.703 302.35L283.283 260.11C283.728 252.841 285.677 245.743 289.006 239.266C292.335 232.789 296.972 227.073 302.623 222.48L318.823 209.32L326.683 206.77Z" fill="#94F250"/>
<path d="M99.3598 206.957C94.2061 185.312 95.0656 163.992 103.891 143.104C103.984 141.811 104.586 140.609 105.565 139.76C106.543 138.911 107.819 138.485 109.111 138.575L157.335 141.997C158.627 142.09 159.83 142.692 160.679 143.671C161.528 144.649 161.954 145.925 161.864 147.217L157.333 211.071C157.24 212.363 156.638 213.566 155.659 214.415C154.68 215.264 153.405 215.69 152.112 215.6L103.889 212.178C102.596 212.085 101.394 211.483 100.545 210.504C99.6957 209.525 99.2696 208.25 99.3598 206.957Z" fill="#F2F2F2"/>
<path d="M104.427 187.933C100.303 177.267 102.94 162.597 107.34 146.882C107.427 145.672 107.991 144.546 108.908 143.751C109.824 142.956 111.019 142.556 112.229 142.641L153.674 145.582C154.884 145.669 156.01 146.233 156.805 147.149C157.601 148.066 158 149.26 157.915 150.471L153.883 207.292C153.796 208.502 153.232 209.629 152.316 210.424C151.399 211.219 150.204 211.618 148.994 211.533L123.32 209.712C117.929 209.323 112.912 206.812 109.37 202.729C105.829 198.646 104.051 193.325 104.427 187.933Z" fill="#8DE8F2"/>
<path d="M129.914 159.339C125.665 157.865 120.941 161.225 120.459 165.581C119.912 170.518 125.223 174.416 129.821 173.074C131.671 172.534 130.884 169.638 129.024 170.181C125.653 171.164 122.058 167.525 123.996 164.272C124.436 163.487 125.105 162.854 125.914 162.459C126.723 162.063 127.632 161.923 128.523 162.057C129.278 162.267 129.975 162.65 130.555 163.177C131.136 163.704 131.585 164.36 131.867 165.092C133.52 168.818 131.555 172.601 128.95 175.31C127.465 176.854 125.722 178.055 124.121 179.463C123.343 180.051 122.696 180.796 122.223 181.649C121.75 182.502 121.461 183.445 121.375 184.417C121.417 185.51 121.757 186.57 122.359 187.484C122.96 188.397 123.8 189.129 124.787 189.599C127.345 190.915 130.254 190.496 132.975 190.059C134.876 189.753 134.069 186.861 132.177 187.166C129.798 187.549 126.235 188.129 124.727 185.648C123.436 183.523 126.096 181.657 127.546 180.526C131.189 177.685 134.873 174.017 135.42 169.186C135.869 165.229 133.858 160.708 129.914 159.339Z" fill="#6C63FF"/>
<path d="M379.999 743.853C380.463 743.874 380.924 743.752 381.317 743.503C381.71 743.254 382.017 742.891 382.197 742.461C382.376 742.032 382.419 741.558 382.32 741.103C382.221 740.649 381.985 740.235 381.643 739.919L381.488 739.301C381.508 739.252 381.529 739.202 381.55 739.153C382.018 738.047 382.803 737.104 383.805 736.442C384.808 735.781 385.983 735.43 387.184 735.435C388.385 735.439 389.558 735.798 390.556 736.467C391.553 737.136 392.331 738.085 392.791 739.195C394.63 743.623 396.97 748.059 397.547 752.741C397.801 754.81 397.694 756.908 397.23 758.941C401.549 749.521 403.791 739.283 403.805 728.92C403.806 726.32 403.662 723.721 403.373 721.137C403.134 719.019 402.802 716.915 402.378 714.827C400.064 703.496 395.094 692.875 387.878 683.837C384.385 681.932 381.561 679.001 379.785 675.441C379.142 674.161 378.687 672.795 378.435 671.385C378.829 671.436 379.921 665.436 379.623 665.068C380.173 664.235 381.155 663.82 381.755 663.007C384.737 658.964 388.846 659.67 390.991 665.165C395.573 667.477 395.618 671.313 392.806 675.002C391.017 677.348 390.771 680.524 389.202 683.036C389.363 683.243 389.531 683.443 389.693 683.65C392.645 687.446 395.217 691.521 397.374 695.819C396.849 691.004 397.475 686.134 399.2 681.609C400.949 677.392 404.225 673.84 407.111 670.194C407.874 669.215 408.91 668.483 410.089 668.093C411.268 667.703 412.536 667.67 413.733 668C414.93 668.33 416.002 669.008 416.814 669.947C417.626 670.886 418.141 672.045 418.295 673.277C418.301 673.331 418.306 673.385 418.312 673.439C417.883 673.68 417.464 673.937 417.053 674.208C416.538 674.553 416.138 675.045 415.907 675.621C415.676 676.196 415.624 676.828 415.758 677.434C415.892 678.039 416.206 678.59 416.659 679.014C417.111 679.438 417.682 679.716 418.294 679.81L418.357 679.82C418.205 681.365 417.935 682.895 417.55 684.399C421.252 698.715 413.26 703.929 401.848 704.163C401.597 704.293 401.351 704.422 401.099 704.544C403.266 710.685 404.625 717.081 405.142 723.572C405.435 727.402 405.418 731.249 405.091 735.075L405.11 734.94C405.937 730.685 408.207 726.845 411.537 724.07C416.482 720.007 423.47 718.511 428.805 715.245C429.372 714.881 430.031 714.687 430.705 714.685C431.379 714.684 432.039 714.875 432.608 715.236C433.177 715.597 433.63 716.114 433.915 716.724C434.2 717.335 434.305 718.014 434.216 718.682L434.194 718.825C433.399 719.149 432.625 719.522 431.876 719.942C431.447 720.184 431.027 720.441 430.617 720.712C430.101 721.057 429.702 721.549 429.471 722.125C429.24 722.7 429.188 723.332 429.322 723.938C429.456 724.543 429.77 725.094 430.222 725.518C430.675 725.942 431.245 726.22 431.858 726.314L431.921 726.324C431.966 726.33 432.005 726.337 432.05 726.343C430.691 729.588 428.784 732.575 426.411 735.172C424.097 747.669 414.155 748.855 403.521 745.216H403.515C402.348 750.286 400.657 755.221 398.47 759.942H380.45C380.386 759.742 380.328 759.535 380.269 759.335C381.937 759.44 383.612 759.34 385.256 759.038C383.919 757.397 382.582 755.744 381.245 754.103C381.215 754.073 381.187 754.04 381.161 754.006C380.482 753.167 379.798 752.334 379.12 751.494L379.119 751.493C379.083 748.919 379.378 746.351 379.998 743.853L379.999 743.853Z" fill="#94F250"/>
<path d="M178.447 759.996C178.447 760.152 178.477 760.307 178.537 760.452C178.597 760.596 178.684 760.728 178.795 760.838C178.905 760.949 179.037 761.036 179.181 761.096C179.326 761.156 179.481 761.186 179.637 761.186H432.927C433.243 761.186 433.546 761.06 433.769 760.837C433.992 760.614 434.117 760.311 434.117 759.996C434.117 759.68 433.992 759.377 433.769 759.154C433.546 758.931 433.243 758.806 432.927 758.806H179.637C179.481 758.805 179.326 758.836 179.181 758.895C179.037 758.955 178.905 759.043 178.795 759.153C178.684 759.264 178.597 759.395 178.537 759.54C178.477 759.684 178.447 759.839 178.447 759.996Z" fill="#CCCCCC"/>
<path d="M50.936 102.533C49.6845 121.026 50.2858 142.015 64.6413 155.734C68.0049 158.978 72.0217 161.468 76.4238 163.037C78.2482 163.68 79.0329 160.782 77.2213 160.144C69.8468 157.544 64.045 151.831 60.1795 145.152C55.6479 137.322 53.9189 128.289 53.5403 119.336C53.3645 113.732 53.4966 108.122 53.936 102.533C54.0664 100.606 51.0659 100.614 50.936 102.533V102.533Z" fill="#3F3D56"/>
<path d="M73.2982 144.852C76.8565 146.505 80.5862 148.188 83.4009 150.998C85.9687 153.562 87.7616 157.302 86.7213 160.957C85.0144 166.953 77.4129 169.214 72.113 170.644C71.7416 170.76 71.4299 171.016 71.2437 171.358C71.0574 171.699 71.0111 172.1 71.1145 172.475C71.218 172.85 71.4631 173.171 71.7981 173.369C72.1331 173.567 72.532 173.627 72.9105 173.537C78.2419 172.098 84.22 170.09 87.7025 165.526C91.8233 160.125 89.8671 153.006 85.238 148.6C82.2558 145.762 78.5044 143.977 74.8123 142.262C73.0724 141.454 71.547 144.039 73.2981 144.852H73.2982Z" fill="#3F3D56"/>
</g>
<defs>
<clipPath id="clip0_62_64">
<rect width="434.258" height="761.185" fill="white"/>
</clipPath>
</defs>
</svg>
