<svg width="97" height="98" viewBox="0 0 97 98" fill="none" xmlns="http://www.w3.org/2000/svg">
<g clip-path="url(#clip0_411_594)">
<g opacity="0.5">
<path opacity="0.5" d="M48.4753 97.1054C75.1204 97.1054 96.7206 75.5052 96.7206 48.8601C96.7206 22.2149 75.1204 0.614746 48.4753 0.614746C21.8301 0.614746 0.22998 22.2149 0.22998 48.8601C0.22998 75.5052 21.8301 97.1054 48.4753 97.1054Z" fill="url(#paint0_linear_411_594)"/>
</g>
<path d="M48.5694 95.78C74.6527 95.78 95.7973 74.6353 95.7973 48.5521C95.7973 22.4689 74.6527 1.32422 48.5694 1.32422C22.4862 1.32422 1.34155 22.4689 1.34155 48.5521C1.34155 74.6353 22.4862 95.78 48.5694 95.78Z" fill="white" fill-opacity="0.75"/>
<path d="M48.6136 95.9668C57.8419 95.9818 66.8705 93.2798 74.5734 88.1977C72.833 78.6869 66.21 78.145 66.21 78.145H29.6873C29.6873 78.145 23.4375 78.6579 21.4856 87.407C29.4273 92.9933 38.9039 95.9835 48.6136 95.9668Z" fill="#0A6ABF"/>
<path d="M48.1117 70.3524C60.7014 70.3524 70.9073 60.1464 70.9073 47.5568C70.9073 34.9672 60.7014 24.7612 48.1117 24.7612C35.5221 24.7612 25.3162 34.9672 25.3162 47.5568C25.3162 60.1464 35.5221 70.3524 48.1117 70.3524Z" fill="#333333"/>
<path opacity="0.1" d="M40.7546 66.5439H55.3609V78.2293C55.3609 80.1657 54.5919 82.0229 53.2229 83.3924C51.8539 84.7619 49.997 85.5317 48.0606 85.5324C46.1236 85.5324 44.2661 84.763 42.8964 83.3934C41.5268 82.0238 40.7574 80.1662 40.7574 78.2293V66.5439H40.7546Z" fill="black"/>
<path d="M41.2179 66.0015H54.9035C55.0264 66.0015 55.1441 66.0503 55.231 66.1371C55.3178 66.224 55.3666 66.3417 55.3666 66.4646V77.6868C55.3668 78.6462 55.178 79.5963 54.8109 80.4827C54.4437 81.3691 53.9056 82.1744 53.2271 82.8528C52.5486 83.5311 51.7432 84.0691 50.8567 84.4361C49.9702 84.803 49.0201 84.9917 48.0607 84.9913C46.1238 84.9913 44.2662 84.2219 42.8966 82.8523C41.527 81.4827 40.7576 79.6251 40.7576 77.6882V66.4646C40.7576 66.3422 40.806 66.2248 40.8922 66.1381C40.9785 66.0513 41.0956 66.0022 41.2179 66.0015Z" fill="#FDB797"/>
<path opacity="0.1" d="M40.781 72.0593C45.4885 73.818 50.6702 73.8322 55.3873 72.0994V70.3022H40.781V72.0593Z" fill="black"/>
<path d="M48.1118 73.0371C59.6746 73.0371 69.048 63.6636 69.048 52.1008C69.048 40.538 59.6746 31.1646 48.1118 31.1646C36.549 31.1646 27.1755 40.538 27.1755 52.1008C27.1755 63.6636 36.549 73.0371 48.1118 73.0371Z" fill="#FDB797"/>
<path opacity="0.1" d="M33.1985 33.0571C33.1985 33.0571 42.0223 50.9673 66.9122 40.5662L61.1172 31.4798L50.8447 27.793L33.1985 33.0571Z" fill="black"/>
<path d="M33.1985 32.7942C33.1985 32.7942 42.0223 50.7045 66.9122 40.3006L61.1172 31.2142L50.8447 27.5273L33.1985 32.7942Z" fill="#333333"/>
<path d="M33.1211 31.5806C33.7161 29.7389 34.7444 28.0669 36.1195 26.705C40.2377 22.6338 46.9893 21.7754 50.4521 17.1333C51.2816 18.4217 50.6401 20.4026 49.208 20.9556C52.5257 20.9335 56.3701 20.6432 58.246 17.9143C58.7096 18.9936 58.8574 20.1823 58.6722 21.3422C58.4869 22.5022 57.9763 23.5857 57.1996 24.4669C60.1399 24.6051 63.2821 26.5957 63.4673 29.5333C63.5945 31.4908 62.3614 33.3432 60.7592 34.4657C59.157 35.5882 57.2051 36.1038 55.2905 36.5254C49.7001 37.7599 29.473 42.9259 33.1211 31.5806Z" fill="#333333"/>
<path d="M27.167 55.7332C28.2428 55.7332 29.1148 54.0981 29.1148 52.081C29.1148 50.0639 28.2428 48.4287 27.167 48.4287C26.0913 48.4287 25.2192 50.0639 25.2192 52.081C25.2192 54.0981 26.0913 55.7332 27.167 55.7332Z" fill="#FDB797"/>
<path d="M69.0452 55.7332C70.1209 55.7332 70.993 54.0981 70.993 52.081C70.993 50.0639 70.1209 48.4287 69.0452 48.4287C67.9695 48.4287 67.0974 50.0639 67.0974 52.081C67.0974 54.0981 67.9695 55.7332 69.0452 55.7332Z" fill="#FDB797"/>
</g>
<defs>
<linearGradient id="paint0_linear_411_594" x1="48.4753" y1="97.1054" x2="48.4753" y2="0.614746" gradientUnits="userSpaceOnUse">
<stop stop-color="#808080" stop-opacity="0.25"/>
<stop offset="0.54" stop-color="#808080" stop-opacity="0.12"/>
<stop offset="1" stop-color="#808080" stop-opacity="0.1"/>
</linearGradient>
<clipPath id="clip0_411_594">
<rect width="96.4906" height="96.4906" fill="white" transform="translate(0.22998 0.615234)"/>
</clipPath>
</defs>
</svg>
