<svg width="500" height="500" viewBox="0 0 793 474" fill="none" xmlns="http://www.w3.org/2000/svg">
<g clip-path="url(#clip0_60_35)">
<path d="M607.007 468.64C596.857 460.063 590.691 446.514 592.308 433.324C593.925 420.133 603.94 408.008 616.93 405.207C629.92 402.406 644.728 410.159 648.674 422.849C650.845 398.384 653.347 372.894 666.354 352.06C678.132 333.195 698.531 319.696 720.639 317.281C742.747 314.866 766.024 323.987 779.812 341.437C793.6 358.886 796.976 384.254 787.319 404.288C780.205 419.046 767.099 430.029 753.368 438.965C708.995 467.595 655.775 479.237 603.502 471.75L607.007 468.64Z" fill="#94F250" fill-opacity="0.75"/>
<path d="M757.95 324.493C739.708 339.352 722.973 355.969 707.987 374.106C684.534 402.394 665.556 434.109 651.713 468.147C650.699 470.63 654.732 471.711 655.734 469.255C678.383 413.936 714.54 365.179 760.899 327.442C762.98 325.747 760.015 322.812 757.95 324.493Z" fill="white"/>
<path d="M255.224 466.31C269.165 454.529 277.634 435.92 275.413 417.803C273.192 399.686 259.437 383.032 241.595 379.185C223.753 375.337 203.414 385.987 197.995 403.416C195.012 369.813 191.576 334.803 173.71 306.187C157.534 280.276 129.515 261.736 99.15 258.419C68.7847 255.102 36.8138 267.629 17.876 291.597C-1.06175 315.564 -5.69858 350.407 7.56494 377.923C17.3357 398.193 35.3369 413.278 54.1977 425.551C114.37 464.705 189.014 481.035 260.039 470.582" fill="#94F250" fill-opacity="0.75"/>
<path d="M47.9038 268.324C72.959 288.732 95.9445 311.556 116.528 336.467C137.114 361.353 155.239 388.177 170.646 416.562C179.258 432.484 186.995 448.865 193.821 465.632C195.213 469.042 189.674 470.527 188.298 467.154C176.207 437.595 161.248 409.293 143.636 382.652C126.11 356.108 106.05 331.327 83.738 308.657C71.1184 295.84 57.8036 283.728 43.854 272.374C40.9948 270.045 45.0682 266.015 47.9038 268.324L47.9038 268.324Z" fill="white"/>
<path d="M569.104 472.962H236.481V131.682C236.481 59.0723 295.553 0 368.163 0H437.422C510.032 0 569.104 59.0723 569.104 131.682V472.962Z" fill="#8DE8F2" fill-opacity="0.75"/>
<path d="M499.845 472.962H236.481V131.682C236.408 103.86 245.218 76.7403 261.629 54.2727C262.234 53.4482 262.837 52.6343 263.459 51.8294C271.397 41.4188 280.843 32.2503 291.485 24.6267C292.087 24.1892 292.69 23.7594 293.303 23.3296C302.208 17.1669 311.841 12.129 321.983 8.33056C322.585 8.10229 323.199 7.87357 323.812 7.65419C332.984 4.38089 342.492 2.13869 352.161 0.969001C352.76 0.887121 353.375 0.823049 353.991 0.758975C363.413 -0.248435 372.915 -0.248435 382.337 0.758975C382.951 0.823049 383.566 0.887113 384.173 0.969877C393.839 2.13964 403.344 4.38157 412.514 7.65424C413.128 7.87361 413.741 8.10232 414.345 8.33103C424.362 12.0815 433.881 17.0442 442.692 23.1084C443.304 23.5289 443.917 23.9588 444.52 24.3886C450.486 28.6469 456.089 33.3908 461.273 38.572C465.43 42.7279 469.304 47.1579 472.869 51.8321C473.489 52.6344 474.093 53.4482 474.696 54.2714C491.107 76.7393 499.918 103.859 499.845 131.682V472.962Z" fill="#0A6ABF"/>
<path d="M478.43 320.321C486.483 320.321 493.011 313.793 493.011 305.74C493.011 297.687 486.483 291.159 478.43 291.159C470.378 291.159 463.85 297.687 463.85 305.74C463.85 313.793 470.378 320.321 478.43 320.321Z" fill="#0A6ABF"/>
<path d="M541.855 462.74H530.683L525.367 419.647L541.857 419.648L541.855 462.74Z" fill="#FFB8B8"/>
<path d="M522.703 459.548H544.249V473.114H509.136C509.136 471.333 509.487 469.569 510.169 467.923C510.851 466.277 511.85 464.781 513.11 463.521C514.369 462.262 515.865 461.262 517.511 460.581C519.157 459.899 520.921 459.548 522.703 459.548Z" fill="#2F2E41"/>
<path d="M597.444 462.74H586.272L580.956 419.647L597.446 419.648L597.444 462.74Z" fill="#FFB8B8"/>
<path d="M578.291 459.548H599.838V473.114H564.725C564.725 471.333 565.076 469.569 565.758 467.923C566.44 466.277 567.439 464.781 568.699 463.521C569.958 462.262 571.454 461.262 573.1 460.581C574.746 459.899 576.51 459.548 578.291 459.548Z" fill="#2F2E41"/>
<path d="M485.81 308.628C485.006 307.444 484.472 306.098 484.244 304.685C484.017 303.272 484.102 301.826 484.494 300.45C484.886 299.073 485.575 297.8 486.513 296.718C487.45 295.637 488.613 294.774 489.92 294.191L527.899 189.513L546.587 199.712L503.223 299.745C504.058 302.006 504.034 304.494 503.156 306.738C502.279 308.982 500.608 310.827 498.462 311.921C496.316 313.016 493.842 313.286 491.51 312.679C489.178 312.072 487.15 310.631 485.81 308.628Z" fill="#FFB8B8"/>
<path d="M591.737 328.297C590.496 327.585 589.425 326.61 588.601 325.44C587.778 324.269 587.22 322.933 586.969 321.524C586.718 320.115 586.778 318.668 587.147 317.285C587.515 315.902 588.182 314.616 589.101 313.519L577.335 202.788L598.603 203.76L603.493 312.678C605.234 314.344 606.303 316.591 606.499 318.992C606.694 321.394 606.002 323.784 604.553 325.709C603.104 327.634 600.999 328.961 598.637 329.438C596.275 329.915 593.82 329.509 591.737 328.297Z" fill="#FFB8B8"/>
<path d="M557.81 170.124C570.171 170.124 580.192 160.103 580.192 147.742C580.192 135.38 570.171 125.359 557.81 125.359C545.448 125.359 535.427 135.38 535.427 147.742C535.427 160.103 545.448 170.124 557.81 170.124Z" fill="#FFB8B8"/>
<path d="M591.595 303.114H524.116L524.197 302.589C524.319 301.804 536.224 223.817 527.443 198.304C526.562 195.796 526.64 193.052 527.661 190.598C528.682 188.145 530.574 186.156 532.974 185.014H532.974C545.525 179.104 569.615 171.826 589.949 189.488C592.941 192.129 595.277 195.431 596.773 199.131C598.27 202.832 598.884 206.829 598.569 210.808L591.595 303.114Z" fill="#94F250"/>
<path d="M537.076 235.343L506.696 229.179L520.936 195.434C521.789 192.166 523.902 189.369 526.814 187.657C529.726 185.945 533.197 185.458 536.468 186.302C539.738 187.146 542.54 189.253 544.259 192.161C545.978 195.068 546.474 198.539 545.638 201.811L537.076 235.343Z" fill="#94F250"/>
<path d="M575.985 246.786L574.158 204.92C572.773 197.05 577.279 189.61 584.208 188.394C591.138 187.182 597.906 192.641 599.297 200.569L606.162 239.689L575.985 246.786Z" fill="#94F250"/>
<path d="M589.349 298.102C600.207 339.453 601.391 392.028 598.462 449.377L583.881 447.554L557.454 338.199L542.873 449.377L526.47 448.465C521.569 388.293 516.798 336.635 524.647 302.658L589.349 298.102Z" fill="#2F2E41"/>
<path d="M572.557 165.039C568.382 169.487 560.627 167.099 560.083 161.023C560.04 160.551 560.043 160.076 560.092 159.605C560.373 156.914 561.928 154.47 561.556 151.628C561.471 150.921 561.208 150.247 560.79 149.67C557.463 145.214 549.652 151.663 546.512 147.629C544.586 145.156 546.85 141.262 545.372 138.498C543.422 134.849 537.645 136.649 534.023 134.651C529.992 132.428 530.233 126.244 532.887 122.483C536.122 117.896 541.795 115.448 547.397 115.095C553 114.742 558.563 116.257 563.794 118.295C569.736 120.611 575.629 123.812 579.286 129.037C583.734 135.392 584.162 143.935 581.937 151.365C580.584 155.885 575.967 161.407 572.557 165.039Z" fill="#2F2E41"/>
<path d="M765.471 473.549H92.6674C92.3801 473.548 92.105 473.433 91.9022 473.23C91.6993 473.027 91.5854 472.751 91.5854 472.464C91.5854 472.177 91.6993 471.901 91.9022 471.698C92.105 471.494 92.3801 471.38 92.6674 471.379H765.471C765.759 471.38 766.034 471.494 766.237 471.698C766.44 471.901 766.553 472.177 766.553 472.464C766.553 472.751 766.44 473.027 766.237 473.23C766.034 473.433 765.759 473.548 765.471 473.549Z" fill="#3F3D56"/>
<path d="M427.398 374.087H308.929C307.369 374.095 305.869 373.485 304.759 372.389C303.648 371.293 303.018 369.801 303.006 368.241V103.811C303.018 102.251 303.648 100.759 304.759 99.6628C305.869 98.5668 307.369 97.956 308.929 97.9644H427.398C428.958 97.956 430.458 98.5668 431.568 99.6628C432.679 100.759 433.309 102.251 433.321 103.811V368.241C433.309 369.801 432.679 371.293 431.568 372.389C430.458 373.485 428.958 374.095 427.398 374.087Z" fill="white"/>
<path d="M433.321 183.525H303.006V185.348H433.321V183.525Z" fill="#CCCCCC"/>
<path d="M433.777 287.514H303.461V289.336H433.777V287.514Z" fill="#CCCCCC"/>
<path d="M345.837 97.9644H344.014V374.998H345.837V97.9644Z" fill="#CCCCCC"/>
<path d="M391.401 97.9644H389.579V374.998H391.401V97.9644Z" fill="#CCCCCC"/>
</g>
<defs>
<clipPath id="clip0_60_35">
<rect width="792.827" height="474" fill="white"/>
</clipPath>
</defs>
</svg>
