<svg width="280" height="280" viewBox="0 0 903 663" fill="none" xmlns="http://www.w3.org/2000/svg">
<path d="M178.487 345.299L166.591 219.249L131.118 220.472L159.198 344.947C156.907 346.869 155.258 349.444 154.471 352.329C153.684 355.213 153.797 358.269 154.794 361.087C155.792 363.906 157.626 366.353 160.053 368.101C162.479 369.849 165.382 370.815 168.372 370.869C171.363 370.924 174.299 370.065 176.787 368.406C179.276 366.748 181.199 364.37 182.299 361.589C183.399 358.809 183.623 355.76 182.942 352.848C182.261 349.937 180.707 347.303 178.487 345.299L178.487 345.299Z" fill="#FFB8B8"/>
<path d="M852.87 626.246C852.543 638.453 850.498 650.554 846.793 662.192C846.709 662.462 846.62 662.728 846.532 662.997H823.85C823.874 662.753 823.898 662.485 823.922 662.192C825.434 644.814 834.153 539.051 823.729 520.964C824.641 522.432 854.624 571.029 852.87 626.246Z" fill="#94F250" fill-opacity="0.5"/>
<path d="M849.23 661.314C848.834 661.879 848.42 662.444 847.998 663H812.417C812.688 662.52 813 661.955 813.362 661.314C819.241 650.709 836.638 619.01 852.79 586.137C870.146 550.815 886.068 514.155 884.728 500.886C885.14 503.879 897.146 595.106 849.23 661.314Z" fill="#94F250"/>
<path d="M67.7084 607.727C68.1957 625.908 71.2429 643.93 76.7601 661.261C76.8825 661.663 77.0182 662.06 77.1503 662.462H110.926C110.89 662.101 110.853 661.699 110.818 661.261C108.566 635.382 95.5817 477.877 111.107 450.942C109.748 453.127 65.0846 525.499 67.7084 607.727Z" fill="#94F250"/>
<path d="M70.243 661.261C70.5256 661.664 70.8192 662.066 71.1201 662.462H96.4577C96.2656 662.12 96.043 661.717 95.7849 661.261C91.5991 653.71 79.2092 631.133 67.7085 607.727C55.3541 582.575 44.01 556.469 44.9653 547.02C44.6705 549.15 36.1178 614.114 70.243 661.261Z" fill="#94F250" fill-opacity="0.5"/>
<path d="M801.922 530.858H449.31C447.579 530.855 445.92 530.167 444.696 528.944C443.472 527.72 442.783 526.061 442.781 524.331V436.901C442.783 435.171 443.472 433.513 444.696 432.289C445.92 431.066 447.579 430.377 449.31 430.375H801.922C803.653 430.377 805.313 431.066 806.537 432.289C807.761 433.513 808.449 435.171 808.452 436.901V524.33C808.45 526.06 807.761 527.719 806.537 528.943C805.313 530.167 803.653 530.855 801.922 530.858ZM449.31 432.98C448.273 432.983 447.278 433.396 446.545 434.129C445.811 434.862 445.398 435.856 445.396 436.893V524.321C445.398 525.358 445.811 526.352 446.545 527.086C447.278 527.819 448.273 528.232 449.31 528.234H801.922C802.96 528.232 803.954 527.819 804.688 527.086C805.421 526.353 805.834 525.358 805.836 524.321V436.901C805.834 435.864 805.421 434.87 804.688 434.137C803.954 433.404 802.96 432.991 801.922 432.989L449.31 432.98Z" fill="#3F3D56"/>
<path d="M416.027 636.38C430.717 636.38 442.626 624.477 442.626 609.794C442.626 595.11 430.717 583.207 416.027 583.207C401.337 583.207 389.428 595.11 389.428 609.794C389.428 624.477 401.337 636.38 416.027 636.38Z" fill="#8DE8F2"/>
<path d="M477.459 592.987C476.284 592.987 475.156 593.454 474.325 594.285C473.493 595.116 473.026 596.243 473.026 597.418C473.026 598.593 473.493 599.72 474.325 600.551C475.156 601.382 476.284 601.849 477.459 601.849H686.452C687.035 601.85 687.611 601.736 688.15 601.515C688.688 601.293 689.177 600.968 689.59 600.557C690.002 600.146 690.33 599.659 690.553 599.122C690.777 598.584 690.893 598.008 690.894 597.427C690.895 596.845 690.782 596.268 690.56 595.73C690.338 595.192 690.013 594.703 689.602 594.291C689.191 593.879 688.703 593.551 688.166 593.327C687.628 593.104 687.052 592.988 686.47 592.987H477.459Z" fill="#8DE8F2"/>
<path d="M477.459 619.575C476.283 619.573 475.155 620.037 474.322 620.867C473.489 621.696 473.019 622.822 473.017 623.997C473.015 625.172 473.48 626.3 474.309 627.133C475.139 627.965 476.266 628.435 477.441 628.437H567.389C568.565 628.437 569.693 627.97 570.524 627.139C571.355 626.308 571.822 625.181 571.822 624.006C571.822 622.831 571.355 621.704 570.524 620.873C569.693 620.042 568.565 619.575 567.389 619.575H477.459Z" fill="#8DE8F2"/>
<path d="M504.098 506.779C518.788 506.779 530.697 494.876 530.697 480.192C530.697 465.509 518.788 453.605 504.098 453.605C489.408 453.605 477.5 465.509 477.5 480.192C477.5 494.876 489.408 506.779 504.098 506.779Z" fill="#8DE8F2"/>
<path d="M565.531 463.385C564.355 463.385 563.227 463.852 562.396 464.683C561.565 465.514 561.098 466.641 561.098 467.816C561.098 468.991 561.565 470.118 562.396 470.949C563.227 471.78 564.355 472.247 565.531 472.247H774.524C775.699 472.247 776.827 471.78 777.658 470.949C778.49 470.118 778.957 468.991 778.957 467.816C778.957 466.641 778.49 465.514 777.658 464.683C776.827 463.852 775.699 463.385 774.524 463.385H565.531Z" fill="#8DE8F2"/>
<path d="M565.531 489.974C564.355 489.974 563.227 490.44 562.396 491.271C561.565 492.102 561.098 493.229 561.098 494.404C561.098 495.58 561.565 496.707 562.396 497.538C563.227 498.369 564.355 498.835 565.531 498.835H655.461C656.637 498.835 657.764 498.369 658.596 497.538C659.427 496.707 659.894 495.58 659.894 494.404C659.894 493.229 659.427 492.102 658.596 491.271C657.764 490.44 656.637 489.974 655.461 489.974H565.531Z" fill="#8DE8F2"/>
<path d="M733.423 314.448H380.811C379.08 314.445 377.42 313.757 376.196 312.534C374.972 311.31 374.284 309.651 374.281 307.921V6.52654C374.284 4.79629 374.972 3.13755 376.196 1.91408C377.42 0.690603 379.08 0.00226452 380.811 0H733.423C735.154 0.00226452 736.813 0.690603 738.037 1.91408C739.261 3.13755 739.95 4.79629 739.952 6.52654V307.92C739.95 309.65 739.262 311.309 738.038 312.533C736.813 313.756 735.154 314.444 733.423 314.446V314.448ZM380.811 2.60548C379.773 2.60774 378.779 3.02067 378.045 3.75392C377.312 4.48716 376.899 5.48101 376.896 6.51797V307.92C376.899 308.957 377.312 309.951 378.045 310.684C378.779 311.417 379.773 311.83 380.811 311.832H733.423C734.46 311.83 735.455 311.418 736.188 310.684C736.922 309.951 737.335 308.957 737.337 307.92V6.52654C737.335 5.48957 736.921 4.49573 736.188 3.76248C735.454 3.02923 734.46 2.6163 733.423 2.61404L380.811 2.60548Z" fill="#3F3D56"/>
<path d="M435.598 79.5864C450.288 79.5864 462.197 67.6832 462.197 52.9997C462.197 38.3163 450.288 26.4131 435.598 26.4131C420.908 26.4131 409 38.3163 409 52.9997C409 67.6832 420.908 79.5864 435.598 79.5864Z" fill="#0785F2"/>
<path d="M497.031 35.2749C495.855 35.2749 494.727 35.7417 493.896 36.5727C493.065 37.4036 492.598 38.5306 492.598 39.7058C492.598 40.8809 493.065 42.008 493.896 42.8389C494.727 43.6699 495.855 44.1367 497.031 44.1367H706.024C707.199 44.1367 708.327 43.6699 709.158 42.8389C709.99 42.008 710.457 40.8809 710.457 39.7058C710.457 38.5306 709.99 37.4036 709.158 36.5727C708.327 35.7417 707.199 35.2749 706.024 35.2749H497.031Z" fill="#CCCCCC"/>
<path d="M497.031 61.8628C495.855 61.8628 494.727 62.3296 493.896 63.1606C493.065 63.9915 492.598 65.1185 492.598 66.2937C492.598 67.4688 493.065 68.5959 493.896 69.4268C494.727 70.2578 495.855 70.7246 497.031 70.7246H586.961C588.137 70.7246 589.264 70.2578 590.096 69.4268C590.927 68.5959 591.394 67.4688 591.394 66.2937C591.394 65.1185 590.927 63.9915 590.096 63.1606C589.264 62.3296 588.137 61.8628 586.961 61.8628H497.031Z" fill="#CCCCCC"/>
<path d="M285.241 637.397H258.33L242.429 413.651L241.817 470.505L183.103 627.005L159.862 608.665L198.393 452.776L180.045 365.968H299.92L285.241 637.397Z" fill="#2F2E41"/>
<path d="M242.429 89.6475C259.993 89.6475 274.232 75.415 274.232 57.8584C274.232 40.3018 259.993 26.0693 242.429 26.0693C224.864 26.0693 210.625 40.3018 210.625 57.8584C210.625 75.415 224.864 89.6475 242.429 89.6475Z" fill="#FFB8B8"/>
<path d="M303.59 383.085C251.631 369.758 202.878 360.778 172.706 376.972C177.991 321.45 171.878 250.575 153.747 176.499C147.858 152.438 151.852 130.758 173.318 118.38L202.064 101.874L246.099 103.097L269.075 115.803C280.31 121.414 289.406 130.537 294.981 141.786C300.557 153.035 302.307 165.796 299.966 178.13C287.62 243.061 294.291 313.142 303.59 383.085Z" fill="#35BDF2"/>
<path d="M184.939 227.808L127.448 224.14C131.939 167.609 144.722 136.706 164.144 126.327L184.939 150.78V227.808Z" fill="#35BDF2"/>
<path d="M817.199 275.348H464.586C462.855 275.346 461.195 274.658 459.971 273.435C458.747 272.211 458.059 270.552 458.057 268.822V114.147C458.059 112.417 458.747 110.758 459.971 109.534C461.195 108.311 462.855 107.623 464.586 107.621H817.199C818.93 107.623 820.59 108.311 821.814 109.534C823.038 110.758 823.727 112.417 823.729 114.147V268.822C823.727 270.552 823.038 272.211 821.814 273.435C820.59 274.658 818.93 275.346 817.199 275.348Z" fill="#0785F2"/>
<path d="M536.396 161.532C535.22 161.532 534.093 161.999 533.261 162.83C532.43 163.661 531.963 164.788 531.963 165.963C531.963 167.138 532.43 168.265 533.261 169.096C534.093 169.927 535.22 170.394 536.396 170.394H745.39C746.566 170.394 747.693 169.927 748.525 169.096C749.356 168.265 749.823 167.138 749.823 165.963C749.823 164.788 749.356 163.661 748.525 162.83C747.693 161.999 746.566 161.532 745.39 161.532H536.396Z" fill="white"/>
<path d="M536.396 187.208C535.22 187.208 534.093 187.675 533.261 188.506C532.43 189.337 531.963 190.464 531.963 191.639C531.963 192.814 532.43 193.941 533.261 194.772C534.093 195.603 535.22 196.07 536.396 196.07H745.39C746.566 196.07 747.693 195.603 748.525 194.772C749.356 193.941 749.823 192.814 749.823 191.639C749.823 190.464 749.356 189.337 748.525 188.506C747.693 187.675 746.566 187.208 745.39 187.208H536.396Z" fill="white"/>
<path d="M536.396 212.573C535.22 212.573 534.093 213.04 533.261 213.871C532.43 214.702 531.963 215.829 531.963 217.004C531.963 218.179 532.43 219.306 533.261 220.137C534.093 220.968 535.22 221.435 536.396 221.435H626.326C627.502 221.435 628.63 220.968 629.461 220.137C630.292 219.306 630.759 218.179 630.759 217.004C630.759 215.829 630.292 214.702 629.461 213.871C628.63 213.04 627.502 212.573 626.326 212.573H536.396Z" fill="white"/>
<path d="M253.272 16.0279C250.309 15.7173 247.516 17.2933 244.601 17.9377C238.607 19.2508 232.466 16.5292 226.304 16.5524C221.007 16.8534 215.854 18.3906 211.258 21.0408C207.542 22.7964 204.15 25.1699 201.228 28.06C198.29 30.9967 196.579 34.9408 196.443 39.0921C196.85 41.4699 196.777 43.9052 196.228 46.2544C195.606 47.4389 194.869 48.5587 194.026 49.5971C193.263 50.8208 192.776 52.1957 192.599 53.6263C192.421 55.057 192.558 56.5091 192.998 57.8819C194.233 60.6013 195.903 63.1014 197.943 65.2838C201.908 70.3688 204.393 76.4577 207.951 81.8545C209.503 84.197 211.245 86.4088 213.158 88.4678C213.471 88.8326 213.853 89.1325 214.281 89.3506C214.702 89.4987 215.149 89.5635 215.595 89.5413C223.143 89.7565 230.955 89.9228 237.905 86.9627C240.131 86.191 242.022 84.6725 243.255 82.6651C244.258 79.9109 244.44 76.9254 243.78 74.0698C243.464 70.8895 243.536 67.6825 243.995 64.5197C244.027 63.4515 244.464 62.4354 245.218 61.6782C245.789 61.3242 246.442 61.1265 247.113 61.105C247.784 61.0836 248.448 61.2391 249.04 61.5559C250.221 62.1775 251.51 62.5664 252.838 62.7015C255.442 62.7015 257.09 59.7403 257.616 57.1617C257.329 54.8444 257.672 52.4926 258.61 50.3539C259.547 48.2151 261.044 46.3686 262.943 45.0085C264.732 42.7386 265.961 40.079 266.529 37.2456C267.098 34.4122 266.99 31.4847 266.215 28.7007C264.499 23.3345 259.244 16.6245 253.272 16.0279Z" fill="#94F250"/>
<path d="M713.851 660.459H361.239C359.508 660.457 357.848 659.769 356.624 658.545C355.4 657.322 354.712 655.663 354.709 653.933V566.503C354.711 564.773 355.4 563.114 356.624 561.89C357.848 560.667 359.508 559.979 361.239 559.977H713.851C715.582 559.979 717.241 560.667 718.465 561.891C719.689 563.114 720.378 564.773 720.38 566.503V653.932C720.378 655.662 719.689 657.321 718.465 658.544C717.241 659.768 715.582 660.456 713.851 660.458V660.459ZM361.239 562.582C360.202 562.584 359.207 562.997 358.474 563.731C357.74 564.464 357.327 565.458 357.325 566.495V653.923C357.327 654.96 357.74 655.954 358.474 656.687C359.207 657.42 360.202 657.833 361.239 657.836H713.851C714.888 657.834 715.883 657.421 716.616 656.688C717.35 655.954 717.763 654.96 717.765 653.923V566.503C717.763 565.466 717.35 564.472 716.616 563.739C715.883 563.006 714.888 562.593 713.851 562.591L361.239 562.582Z" fill="#3F3D56"/>
<path d="M314.264 340.408L302.367 214.358L266.894 215.581L294.975 340.056C292.684 341.978 291.034 344.554 290.247 347.438C289.46 350.322 289.573 353.378 290.571 356.197C291.568 359.015 293.403 361.462 295.829 363.21C298.256 364.958 301.158 365.924 304.149 365.979C307.139 366.033 310.075 365.174 312.564 363.516C315.053 361.857 316.975 359.479 318.075 356.699C319.175 353.918 319.399 350.869 318.718 347.958C318.037 345.047 316.483 342.413 314.264 340.408L314.264 340.408Z" fill="#FFB8B8"/>
<path d="M314.598 216.804L260.777 229.03L258.33 140.999L288.91 142.222L314.598 216.804Z" fill="#35BDF2"/>
<path d="M257.479 635.195L296.517 635.194H296.518C303.116 635.194 309.444 637.814 314.109 642.477C318.775 647.141 321.396 653.465 321.396 660.06V660.868L257.48 660.871L257.479 635.195Z" fill="#2F2E41"/>
<path d="M159.431 604.3L192.249 625.432L192.25 625.433C197.796 629.005 201.696 634.633 203.091 641.079C204.487 647.524 203.263 654.26 199.69 659.804L199.252 660.484L145.52 625.885L159.431 604.3Z" fill="#2F2E41"/>
<path d="M903 660.555H0V663H903V660.555Z" fill="#CACACA"/>
</svg>
